Coordinates
nRows=221
nColumns=2
inDegrees=yes
endheader
time	ankle_angle_r	
3.68726	  0.305153	
3.74976	  0.233105	
3.81226	  0.241897	
3.87475	  0.223739	
3.93725	  0.229651	
3.99974	  0.295044	
4.06224	  0.302764	
4.12474	  0.286566	
4.18723	  0.268361	
4.24973	  0.200927	
4.31222	  0.144082	
4.37472	  0.116435	
4.43722	  0.131644	
4.49971	  0.196246	
4.56221	  0.215825	
4.6247	  0.195534	
4.6872	  0.173533	
4.7497	  0.135366	
4.81219	  0.123998	
4.87469	  0.131606	
4.93718	  0.163471	
4.99968	  0.241207	
5.06218	  0.278780	
5.12467	  0.268188	
5.18717	  0.251435	
5.24966	  0.232540	
5.31216	  0.246998	
5.37466	  0.262584	
5.43715	  0.265040	
5.49965	  0.297927	
5.56214	  0.304685	
5.62464	  0.270737	
5.68714	  0.243292	
5.74963	  0.189435	
5.81213	  0.149244	
5.87462	  0.165315	
5.93712	  0.153126	
5.99962	  0.135929	
6.06211	  0.163203	
6.12461	  0.184585	
6.1871	  0.200074	
6.2496	  0.178348	
6.3121	  0.135398	
6.37459	  0.165030	
6.43709	  0.208007	
6.49958	  0.229985	
6.56208	  0.271659	
6.62458	  0.303961	
6.68707	  0.324013	
6.74957	  0.299630	
6.81206	  0.243723	
6.87456	  0.237180	
6.93706	  0.240748	
6.99955	  0.266036	
7.06205	  0.326813	
7.12454	  0.327871	
7.18704	  0.309137	
7.24954	  0.292458	
7.31203	  0.245851	
7.37453	  0.252176	
7.43702	  0.272851	
7.49952	  0.257214	
7.56202	  0.280975	
7.62451	  0.313426	
7.68701	  0.321575	
7.7495	  0.311749	
7.812	  0.255014	
7.8745	  0.207697	
7.93699	  0.196366	
7.99949	  0.175669	
8.06198	  0.176666	
8.12448	  0.197643	
8.18698	  0.189521	
8.24947	  0.179717	
8.31197	  0.172172	
8.37446	  0.150074	
8.43696	  0.135985	
8.49946	  0.132582	
8.56195	  0.165530	
8.62445	  0.221297	
8.68694	  0.254105	
8.74944	  0.281666	
8.81194	  0.261925	
8.87443	  0.209462	
8.93693	  0.208925	
8.99942	  0.206779	
9.06192	  0.222900	
9.12442	  0.297515	
9.18691	  0.325875	
9.24941	  0.308627	
9.3119	  0.261777	
9.3744	  0.174627	
9.4369	  0.133627	
9.49939	  0.132282	
9.56189	  0.152538	
9.62438	  0.201371	
9.68688	  0.210309	
9.74938	  0.209654	
9.81187	  0.210680	
9.87437	  0.164614	
9.93686	  0.134333	
9.99936	  0.145993	
10.0619	  0.189523	
10.1244	  0.257475	
10.1868	  0.284721	
10.2493	  0.287043	
10.3118	  0.286781	
10.3743	  0.247344	
10.4368	  0.231724	
10.4993	  0.253981	
10.5618	  0.241170	
10.6243	  0.248432	
10.6868	  0.287536	
10.7493	  0.291441	
10.8118	  0.294262	
10.8743	  0.266118	
10.9368	  0.185758	
10.9993	  0.137927	
11.0618	  0.120398	
11.1243	  0.137130	
11.1868	  0.176702	
11.2493	  0.179783	
11.3118	  0.199593	
11.3743	  0.209364	
11.4368	  0.156562	
11.4993	  0.132066	
11.5618	  0.150321	
11.6243	  0.214384	
11.6868	  0.306451	
11.7492	  0.313549	
11.8117	  0.290787	
11.8742	  0.291690	
11.9367	  0.251215	
11.9992	  0.229447	
12.0617	  0.245428	
12.1242	  0.262424	
12.1867	  0.308817	
12.2492	  0.316499	
12.3117	  0.261607	
12.3742	  0.221214	
12.4367	  0.184396	
12.4992	  0.155063	
12.5617	  0.146317	
12.6242	  0.128144	
12.6867	  0.140734	
12.7492	  0.179780	
12.8117	  0.197198	
12.8742	  0.206306	
12.9367	  0.176906	
12.9992	  0.140657	
13.0617	  0.168553	
13.1242	  0.190114	
13.1867	  0.205866	
13.2492	  0.263367	
13.3116	  0.311512	
13.3741	  0.334115	
13.4366	  0.299050	
13.4991	  0.236400	
13.5616	  0.225688	
13.6241	  0.217761	
13.6866	  0.238389	
13.7491	  0.283951	
13.8116	  0.248512	
13.8741	  0.213461	
13.9366	  0.199283	
13.9991	  0.140286	
14.0616	  0.130255	
14.1241	  0.151362	
14.1866	  0.148788	
14.2491	  0.178417	
14.3116	  0.195633	
14.3741	  0.186663	
14.4366	  0.183448	
14.4991	  0.170249	
14.5616	  0.193355	
14.6241	  0.228404	
14.6866	  0.225477	
14.7491	  0.254396	
14.8116	  0.294318	
14.874	  0.292311	
14.9365	  0.301909	
14.999	  0.292745	
15.0615	  0.250508	
15.124	  0.241984	
15.1865	  0.227695	
15.249	  0.209942	
15.3115	  0.229966	
15.374	  0.240635	
15.4365	  0.230032	
15.499	  0.184059	
15.5615	  0.131088	
15.624	  0.133451	
15.6865	  0.133038	
15.749	  0.141994	
15.8115	  0.192663	
15.874	  0.205925	
15.9365	  0.211953	
15.999	  0.226475	
16.0615	  0.205397	
16.124	  0.208806	
16.1865	  0.230474	
16.249	  0.244814	
16.3115	  0.279328	
16.374	  0.294304	
16.4364	  0.292613	
16.4989	  0.291610	
16.5614	  0.268097	
16.6239	  0.250106	
16.6864	  0.227306	
16.7489	  0.192750	
16.8114	  0.213483	
16.8739	  0.240767	
16.9364	  0.209480	
16.9989	  0.184852	
17.0614	  0.166628	
17.1239	  0.139424	
17.1864	  0.125844	
17.2489	  0.106005	
17.3114	  0.140492	
17.3739	  0.218178	
17.4364	  0.213875	
